<svg width="135" height="135" viewBox="0 0 135 135" fill="none" xmlns="http://www.w3.org/2000/svg">
<path d="M44.9892 57.0391C45.0682 56.0881 46.1604 56.0664 48.7704 56.9712C50.0069 57.3911 52.1299 58.0645 53.4938 58.4516C56.8657 59.4015 57.6685 59.9883 56.3907 60.5186C54.9333 61.1128 44.9118 58.0653 44.9892 57.0391Z" fill="black"/>
<path d="M59.0099 61.8751C57.5539 61.4069 58.0218 59.5591 64.5897 61.7111C68.8976 63.1245 70.23 63.8138 69.9046 64.4984C69.29 65.7915 62.8316 63.0948 59.0099 61.8751Z" fill="black"/>
<path d="M31.347 48.1115C31.2085 47.9711 31.557 49.1998 32.1173 50.8462C33.3184 54.4012 33.535 55.4366 33.0572 55.6572C32.4823 55.9248 31.2952 55.7149 30.9176 55.293C30.7864 55.1374 30.3424 54.0311 29.9266 52.8263C29.0615 50.2517 27.4748 46.2524 26.6733 44.6032C25.5579 42.3199 25.4045 41.818 25.6948 41.639C26.3941 41.188 26.7961 41.3231 32.2817 43.9864C36.4509 46.0054 37.9179 46.6467 39.4572 47.1359C43.0516 48.2848 43.3702 48.3989 43.7448 48.6702C46.1229 50.416 39.397 49.0281 34.4542 46.7533C33.4581 46.2985 32.6836 46.0052 32.7155 46.095C32.8425 46.4164 37.1847 50.308 39.7586 52.4267C42.6086 54.7884 42.8776 55.0468 42.6752 55.4728C41.8653 57.1767 36.9797 53.9966 31.347 48.1115Z" fill="black"/>
<path d="M108.346 93.9978C107.747 94.1604 107.474 94.0679 106.791 93.4637C105.717 92.5057 102.735 87.6376 102.944 87.1964C103.66 85.6903 107.397 89.0891 108.439 92.1952C108.934 93.6244 108.908 93.8359 108.346 93.9978Z" fill="black"/>
<path d="M97.375 82.6285C93.0295 78.1945 93.239 78.4992 94.1201 78.0973C95.4044 77.5142 99.8018 80.7792 100.888 83.1234C101.73 84.8848 99.2593 84.5499 97.375 82.6285Z" fill="black"/>
<path d="M74.2243 67.298C72.0386 66.1285 71.9538 66.0321 72.5633 65.6131C73.7815 64.7374 80.6481 67.5164 81.2149 69.1099C81.7976 70.7484 79.6014 70.1894 74.2243 67.298Z" fill="black"/>
<path d="M88.6216 75.1479C88.56 75.0813 87.3513 74.1711 85.9521 73.1517C82.9857 70.9957 82.7914 70.6982 84.3426 70.6522C86.0821 70.6024 92.478 75.0785 92.0224 76.037C91.7621 76.5846 89.3537 75.9621 88.6216 75.1479Z" fill="black"/>
</svg>
