<svg width="16" height="16" viewBox="0 0 16 16" fill="none" xmlns="http://www.w3.org/2000/svg">
<path d="M15.1086 7.55431C15.1086 7.64142 15.074 7.72496 15.0124 7.78656C14.9508 7.84815 14.8673 7.88276 14.7802 7.88276H7.88276V14.7802C7.88276 14.8673 7.84815 14.9508 7.78656 15.0124C7.72496 15.074 7.64142 15.1086 7.55431 15.1086C7.4672 15.1086 7.38366 15.074 7.32206 15.0124C7.26047 14.9508 7.22586 14.8673 7.22586 14.7802V7.88276H0.328448C0.241338 7.88276 0.157796 7.84815 0.0962003 7.78656C0.0346043 7.72496 0 7.64142 0 7.55431C0 7.4672 0.0346043 7.38366 0.0962003 7.32206C0.157796 7.26047 0.241338 7.22586 0.328448 7.22586H7.22586V0.328448C7.22586 0.241338 7.26047 0.157796 7.32206 0.0962003C7.38366 0.0346043 7.4672 0 7.55431 0C7.64142 0 7.72496 0.0346043 7.78656 0.0962003C7.84815 0.157796 7.88276 0.241338 7.88276 0.328448V7.22586H14.7802C14.8673 7.22586 14.9508 7.26047 15.0124 7.32206C15.074 7.38366 15.1086 7.4672 15.1086 7.55431Z" fill="white"/>
</svg>
